# xmcd CD database file
#
# Track frame offsets:
#	151
#	13781
#	26242
#	38691
#	53240
#	67277
#	81946
#	92973
#	108027
#	120994
#	136477
#
# Disc length: 1982 seconds
#
# Revision: 1
# Processed by: cddbd v1.5.2PL0 Copyright (c) Steve Scherf et al.
# Submitted via: CDex 1.72
#
DISCID=9307bc0b
DTITLE=Pointer Brothers, The [CDN-99-The Pink Album (Hits From The Pit)-cty) - The Pink Album (Hits From the Pit)
DYEAR=1999
DGENRE=Country
TTITLE0=I'm Home
TTITLE1=Last Night in Town
TTITLE2=Lethal Lake
TTITLE3=Seen That Look
TTITLE4=Ol' Bayou
TTITLE5=Mountain Stream
TTITLE6=Snake Pit Stomp
TTITLE7=Younger Days
TTITLE8=All Over Again
TTITLE9=Good Little Woman
TTITLE10=Soldiers Joy
EXTD=YEAR: 1999
EXTT0=
EXTT1=
EXTT2=
EXTT3=
EXTT4=
EXTT5=
EXTT6=
EXTT7=
EXTT8=
EXTT9=
EXTT10=
PLAYORDER=
